<svg xmlns="http://www.w3.org/2000/svg" width="23" height="5" viewBox="0 0 23 5" fill="none">
<path fill-rule="evenodd" clip-rule="evenodd" d="M0 2.50003C0 1.11932 1.11929 0 2.5 0C3.88071 0 5 1.11932 5 2.50003C5 3.88074 3.88071 5.00006 2.5 5.00006C1.11929 5.00006 0 3.88074 0 2.50003ZM9 2.50003C9 1.11932 10.1193 0 11.5 0C12.8807 0 14 1.11932 14 2.50003C14 3.88074 12.8807 5.00006 11.5 5.00006C10.1193 5.00006 9 3.88074 9 2.50003ZM20.5 0C19.1193 0 18 1.11932 18 2.50003C18 3.88074 19.1193 5.00006 20.5 5.00006C21.8807 5.00006 23 3.88074 23 2.50003C23 1.11932 21.8807 0 20.5 0Z" fill="#7A8FA6"/>
</svg>